HIERARCHY
ROOT Hips
{
  OFFSET 13.6774 106.653 -34.4427
  CHANNELS 6 Xposition Yposition Zposition Zrotation Xrotation Yrotation
  JOINT ToSpine
  {
    OFFSET -2.69724 7.43032 -0.144315
    CHANNELS 3 Zrotation Xrotation Yrotation
    JOINT Spine
    {
      OFFSET -0.0310711 10.7595 1.96963
      CHANNELS 3 Zrotation Xrotation Yrotation
      JOINT Spine1
      {
        OFFSET 19.9056 3.91189 0.764692
        CHANNELS 3 Zrotation Xrotation Yrotation
        JOINT Neck
        {
          OFFSET 25.9749 7.03908 -0.130764
          CHANNELS 3 Zrotation Xrotation Yrotation
          JOINT Head
          {
            OFFSET 9.52751 0.295786 -0.907742
            CHANNELS 3 Zrotation Xrotation Yrotation
            End Site
            {
              OFFSET 16.4037 0.713936 2.7358
            }
          }
        }
        JOINT LeftShoulder
        {
          OFFSET 17.7449 4.33886 11.7777
          CHANNELS 3 Zrotation Xrotation Yrotation
          JOINT LeftArm
          {
            OFFSET 0.911315 1.27913 9.80584
            CHANNELS 3 Zrotation Xrotation Yrotation
            JOINT LeftForeArm
            {
              OFFSET 28.6126 1.18197 -3.53199
              CHANNELS 3 Zrotation Xrotation Yrotation
              JOINT LeftHand
              {
                OFFSET 27.5088 0.0218783 0.327423
                CHANNELS 3 Zrotation Xrotation Yrotation
                End Site
                {
                  OFFSET 18.6038 -0.000155887 0.382096
                }
              }
            }
          }
        }
        JOINT RightShoulder
        {
          OFFSET 17.1009 2.89543 -12.2328
          CHANNELS 3 Zrotation Xrotation Yrotation
          JOINT RightArm
          {
            OFFSET 1.4228 0.178766 -10.211
            CHANNELS 3 Zrotation Xrotation Yrotation
            JOINT RightForeArm
            {
              OFFSET 28.733 1.87905 2.64907
              CHANNELS 3 Zrotation Xrotation Yrotation
              JOINT RightHand
              {
                OFFSET 27.4588 0.290562 -0.101845
                CHANNELS 3 Zrotation Xrotation Yrotation
                End Site
                {
                  OFFSET 17.8396 -0.255518 -0.000602873
                }
              }
            }
          }
        }
      }
    }
  }
  JOINT LeftUpLeg
  {
    OFFSET -5.61296 -2.22332 -10.2353
    CHANNELS 3 Zrotation Xrotation Yrotation
    JOINT LeftLeg
    {
      OFFSET 2.56703 -44.7417 -7.93097
      CHANNELS 3 Zrotation Xrotation Yrotation
      JOINT LeftFoot
      {
        OFFSET 3.16933 -46.5642 -3.96578
        CHANNELS 3 Zrotation Xrotation Yrotation
        JOINT LeftToeBase
        {
          OFFSET 0.346054 -6.02161 12.8035
          CHANNELS 3 Zrotation Xrotation Yrotation
          End Site
          {
            OFFSET 0.134235 -1.35082 5.13018
          }
        }
      }
    }
  }
  JOINT RightUpLeg
  {
    OFFSET -5.7928 -1.72406 10.6446
    CHANNELS 3 Zrotation Xrotation Yrotation
    JOINT RightLeg
    {
      OFFSET -2.57161 -44.7178 -7.85259
      CHANNELS 3 Zrotation Xrotation Yrotation
      JOINT RightFoot
      {
        OFFSET -3.10148 -46.5936 -4.03391
        CHANNELS 3 Zrotation Xrotation Yrotation
        JOINT RightToeBase
        {
          OFFSET -0.0828122 -6.13587 12.8035
          CHANNELS 3 Zrotation Xrotation Yrotation
          End Site
          {
            OFFSET -0.131328 -1.35082 5.13018
          }
        }
      }
    }
  }
}
MOTION
Frames: 19
Frame Time: 0.03333333333333333
0.0000 93.1000 0.0000 6.7224 -48.7874 -69.0012 -70.7779 0.0509 87.9137 116.7721 58.3752 -32.4213 -6.4673 11.7389 4.1905 -160.7794 0.0205 -180.2040 -147.1152 39.8684 -163.9231 -0.3575 -17.3845 -31.0725 -111.0721 16.5614 -54.8407 13.8168 -0.1654 -86.0414 0.1382 -0.5843 -0.5685 -2.1740 5.8389 42.8597 -69.9520 -37.2324 53.9789 4.6883 -2.9147 67.6386 -0.4516 -0.2810 -0.5339 -60.0150 -3.0910 103.6318 -3.7887 52.0813 -2.8778 -8.0601 6.0983 2.3397 1.5545 -6.3110 3.1770 0.8044 9.0471 68.0962 6.0307 61.3379 6.8309 -5.7559 -5.4908 -0.0522 -0.0023 -29.1314 -29.2205 
0.0000 93.1000 0.0000 11.0341 -49.5533 -66.4967 -70.7425 0.2688 87.6482 122.5861 58.6331 -36.3485 -6.1399 13.2006 3.0431 -163.4260 2.1708 -179.3850 -147.1364 42.7362 -164.1310 -0.4420 -18.1113 -33.0251 -105.1881 22.5430 -55.7346 10.4864 1.8845 -77.5736 -0.0091 -0.5640 -0.7710 -1.8809 6.4443 42.9828 -70.6087 -35.8397 60.3801 7.9848 -2.6734 70.7447 -0.4776 -0.2708 -0.0738 -51.6660 1.3973 104.9017 -9.0420 71.3057 6.5340 -7.8912 4.2618 1.7010 1.4222 -4.3034 7.7053 -6.9601 8.1076 71.8057 6.1660 61.6952 2.9365 -6.2962 -12.0216 0.5625 1.3760 -17.3039 -22.9400 
0.0000 93.1000 0.0000 14.9365 -50.2364 -61.3018 -70.5155 0.1034 87.6077 129.6290 58.1442 -39.9477 -4.8633 15.5168 0.3700 -164.4097 5.1834 -177.5480 -148.2546 45.7931 -163.4381 -0.4110 -18.9272 -35.9004 -95.7149 29.2507 -57.8373 8.6360 3.1708 -69.4549 0.1670 -0.9939 -0.7008 -2.4154 7.3109 42.2714 -73.9831 -35.5031 67.3335 10.4056 -2.7387 74.9841 -0.3123 0.2540 -0.8328 -37.9637 6.0985 101.8363 -129.8652 84.1900 129.9545 -2.7995 1.5843 1.1000 1.3798 -7.4829 9.4134 -15.0118 7.0692 72.2653 5.1197 62.5596 -1.2680 -6.9918 -20.7322 0.5560 1.2517 -13.1629 -16.1383 
0.0000 93.1000 0.0000 15.0664 -49.6668 -60.2153 -70.6528 0.7646 87.7929 136.6390 59.6072 -43.7231 -6.3212 18.8853 -1.3427 -167.6907 7.5776 -178.6396 -149.6991 48.5319 -166.3812 -0.0322 -18.7757 -37.6918 -86.7503 35.6598 -58.8850 8.5687 3.7956 -63.9974 -0.0711 -0.8663 0.2226 -1.9338 7.2677 40.7199 -75.0752 -37.1482 73.7614 14.1101 -3.3231 79.8288 0.1177 0.2350 0.0727 -21.0304 10.6701 97.0996 -165.2940 70.3668 163.4059 -0.2433 0.6267 0.1216 2.3917 -7.9781 7.9604 -21.9836 7.1356 74.0336 5.0860 61.2141 0.8905 -6.3729 -24.8278 1.2088 2.2026 -16.8381 -21.3204 
0.0000 93.1000 0.0000 13.0883 -48.3639 -62.5727 -70.7636 0.2347 87.6223 136.6096 62.6194 -45.9704 -8.6471 21.9647 -1.0374 -169.6642 9.9002 -178.8124 -152.3454 50.8489 -166.7502 -0.3288 -17.1141 -37.0964 -81.8202 44.6679 -54.6985 4.9838 2.1449 -64.6106 0.1464 -0.5361 -0.3040 -1.7806 7.6578 37.9703 -75.2584 -39.7603 80.5405 16.4594 -1.0531 86.9990 0.0468 -0.3383 -0.0555 -1.9997 13.1233 93.6601 -166.9020 67.1778 164.0464 -1.0963 -0.3896 -0.2539 2.6738 -9.5745 10.0485 -28.1398 3.9979 77.9993 3.7792 58.0024 2.2964 -6.0147 -25.2607 1.4051 2.4436 -21.8680 -18.0714 
0.0000 93.1000 0.0000 13.2219 -47.9338 -64.7106 -70.8441 0.3704 88.0995 134.7854 66.2318 -47.8401 -10.6398 24.0064 0.6912 -167.6575 12.8339 -179.4981 -153.2080 52.3360 -165.6569 -0.0716 -16.2106 -35.0107 -79.0314 52.1713 -47.7083 3.4666 1.3002 -67.4408 -0.0902 -0.4030 -0.5025 -1.4808 7.9354 35.9699 -74.8790 -42.2058 84.1922 20.7282 1.4520 94.1373 0.1828 -0.5336 0.3025 8.0433 14.4642 93.6851 -161.2307 74.3594 156.8877 -1.9972 -0.9182 -0.5247 2.6286 -9.4082 8.9137 -38.0213 -0.1300 82.1061 4.3436 50.0531 7.4871 -5.1508 -20.0304 1.4917 2.3778 -29.3630 -17.0841 
0.0000 93.1000 0.0000 15.4077 -47.1560 -63.7805 -70.9604 1.4283 88.1138 135.8623 68.6340 -50.2510 -11.5532 25.7531 1.5038 -165.6878 15.0328 -179.8007 -154.9864 55.6218 -166.1011 0.8244 -14.9665 -33.0491 -76.7188 58.6650 -43.7121 3.7532 0.9043 -68.5622 -0.3600 -0.6397 -0.1205 -0.5729 7.2257 34.9399 -75.6167 -43.0049 85.2823 21.4052 4.0886 100.7698 0.5085 -0.3035 0.8059 10.5899 14.2431 94.0078 -84.1254 85.2692 76.1798 -3.0180 -1.5723 -0.7370 1.9106 -6.6648 10.1918 -51.7321 -1.4751 83.7289 2.2713 35.7204 12.4804 -2.5627 -2.0185 1.0691 2.7411 -37.7643 -9.7634 
0.0000 93.1000 0.0000 17.2856 -48.5691 -63.2186 -70.6013 -1.4087 88.0489 133.7818 71.8767 -48.6151 -11.5035 28.3696 0.5721 -165.9429 16.7693 -178.4761 -157.9500 56.5920 -163.2827 -0.8600 -14.8584 -31.7309 -81.7018 61.8440 -34.7259 2.0841 0.5109 -70.8277 0.5147 -0.2629 -0.2618 -2.5815 7.3879 34.0762 -77.1938 -43.0246 83.5065 22.3429 7.2887 105.3723 -0.4926 -0.7211 -0.6644 10.5049 12.8603 95.8323 -12.2472 72.1528 -1.8628 -2.9136 -0.2364 0.8147 4.8049 -13.9105 12.5401 -62.8961 -7.3886 77.5284 -0.6307 23.9702 22.3956 2.3941 14.6600 -2.7701 2.1447 -33.0515 -4.9799 
0.0000 93.1000 0.0000 18.8509 -45.7215 -58.8390 -70.4671 0.2953 88.2197 125.1445 74.1633 -37.4047 -7.7372 28.2623 -0.3970 -164.0260 18.5350 180.7385 -157.6828 58.5848 -162.5442 -0.1201 -15.8854 -30.9220 -88.2554 61.9401 -27.7361 2.1211 0.2839 -72.6862 -0.0087 0.4200 0.3970 -0.8644 6.9797 34.5397 -77.8474 -42.3513 80.3695 23.7508 8.3042 108.0448 0.4823 -1.5017 0.4446 8.7899 11.2655 97.7215 -7.2125 59.0270 -11.4724 -3.4970 2.9317 -0.5423 8.6631 -19.5354 14.6077 -67.7508 -3.4687 81.0390 -2.8388 25.0952 28.6284 -0.2602 20.6057 -0.6461 3.7021 -23.7097 -30.1108 
0.0000 93.1000 0.0000 19.7921 -46.3366 -53.9077 -70.6777 -0.4350 87.9039 119.9120 74.8940 -28.6551 -5.8589 28.0406 -2.8131 -160.9380 18.8135 176.4479 -157.7283 58.5098 -162.7248 -0.4490 -14.7629 -30.9389 -94.2594 59.9779 -24.5399 3.7267 1.1067 -74.5067 -0.2393 0.5470 0.0899 -1.3925 6.9471 36.0580 -76.9934 -41.1492 77.5789 23.9740 5.7227 101.8348 0.3735 -1.6155 0.3186 7.1292 11.1139 98.9679 -6.0647 55.4050 -9.8712 -4.2765 2.2362 -0.1510 10.4587 -23.0617 15.8712 -66.8833 1.9287 93.5199 2.3492 39.3023 -9.6111 -4.0787 13.0626 0.1796 -0.1847 -11.1916 1.3646 
0.0000 93.1000 0.0000 24.6624 -46.4354 -47.8625 -70.5072 -0.9030 87.7861 118.9673 72.6336 -30.0601 -4.0863 26.3329 -2.2856 -155.8995 17.7544 174.8196 -155.7149 57.4457 -161.3132 -0.7559 -14.1040 -31.9939 -94.9044 56.7790 -29.7601 5.8085 0.6779 -76.7378 -0.3206 0.7159 0.7557 -1.7281 6.8975 39.0666 -78.0328 -40.7315 72.6488 20.9875 0.9745 91.7510 0.3245 -1.6683 0.3502 1.1723 10.6674 100.9612 -7.1337 58.9890 -8.8114 -4.0539 -2.2009 -0.1847 10.4502 -21.6361 17.1849 -64.3306 7.0433 93.1359 3.8464 60.2804 -2.5119 -0.2847 14.3878 -1.2147 2.3365 -11.8052 -16.5945 
0.0000 93.1000 0.0000 33.7932 -45.7062 -40.7085 -70.7553 -0.3523 87.9316 118.9292 70.2324 -35.0332 -2.8178 23.9706 -0.3784 -150.9482 17.5432 172.6887 -153.0474 57.0343 -159.6451 0.0501 -14.2674 -34.0089 -93.9229 51.9114 -37.8098 6.5251 0.7349 -79.6137 0.5097 -0.6817 -0.4435 -2.4580 6.9799 42.0289 -76.1366 -40.3366 69.4963 15.0876 -2.8384 79.6752 -0.5265 -0.0399 -0.0936 -8.9777 7.3617 102.9101 -8.9477 64.3410 -9.6088 -0.9599 -8.8936 0.1011 7.1825 -15.4607 14.8232 -56.6924 5.7904 87.0147 24.4448 83.2251 -28.4278 -4.0084 11.8547 -0.8055 1.6801 -13.0370 -7.7674 
0.0000 93.1000 0.0000 36.7166 -44.0134 -38.7332 -70.7972 -0.4926 88.0168 113.8549 68.7632 -34.0132 0.1458 22.1212 -1.0504 -149.9185 15.8772 170.8665 -149.9176 56.3001 -158.1584 -0.4848 -14.6755 -34.9576 -92.5816 45.5507 -47.6478 13.3404 0.5511 -86.8661 -0.3827 0.1764 0.4083 -2.2466 6.2349 44.9051 -72.4759 -40.2944 67.8819 9.2039 -3.8909 69.5827 0.1920 -1.0726 0.2390 -15.7047 2.7938 104.8069 -10.9829 67.9448 -8.9548 2.6483 -16.9378 -1.6631 4.8344 -13.3455 15.2489 -40.7943 4.9083 84.4858 167.1658 73.2003 176.8681 -10.6268 10.6539 0.6447 -0.0429 -17.2621 0.6017 
0.0000 93.1000 0.0000 37.9418 -41.8044 -37.9955 -70.6109 0.6250 87.8830 111.8403 67.7418 -31.8970 1.0243 20.0709 -0.6533 -151.8974 14.5441 171.6780 -151.0472 55.5982 -157.9337 0.2624 -14.5045 -33.0801 -90.2036 45.0047 -58.9981 17.7789 -2.4715 -93.8353 -0.2266 0.1919 -0.0663 -1.3790 7.0788 45.1692 -67.0142 -42.8509 65.4628 8.0456 -4.8639 59.9707 0.8329 -1.0889 0.9346 -22.0123 0.3093 104.8222 -11.1199 68.0063 -9.1686 3.1330 -22.7094 -3.3825 6.7936 -16.6047 17.7628 -21.0287 3.5838 82.9534 171.2535 60.3738 172.7419 -16.0651 10.1751 3.0604 2.6010 -22.0254 -3.4934 
0.0000 93.1000 0.0000 39.6476 -40.2482 -34.9700 -70.4203 -0.3381 88.1955 111.6446 65.7663 -31.7707 -0.9971 17.8399 -0.5367 -153.0212 13.9751 169.2239 -149.6520 54.6508 -161.2562 0.2020 -13.2482 -28.8295 -86.5842 44.7597 -67.9066 22.4631 -6.3014 -100.9193 0.2538 -0.6401 -0.1849 -2.9874 7.1401 45.7416 -60.6277 -47.1557 59.8536 4.5752 -3.7863 55.4562 -0.5230 -0.3247 -0.3124 -31.9972 -1.8219 103.1092 -9.8050 65.3459 -12.8831 1.5233 -24.6054 -1.8135 7.9745 -18.7774 16.7779 -5.2290 3.5285 82.7564 171.0985 59.9547 172.2141 -15.3551 7.2677 1.6558 2.1678 -23.8841 -8.2938 
0.0000 93.1000 0.0000 42.0562 -39.9133 -31.1038 -70.4865 -0.1232 88.0197 116.7917 62.3283 -30.9084 -2.4257 15.9715 0.4535 -154.0164 13.3065 170.1944 -149.5548 53.6023 -163.0938 0.9078 -12.3184 -26.9089 -84.8419 46.7417 -70.1256 24.8093 -9.5914 -108.5152 -0.2852 -2.1707 0.0261 -4.2029 7.9888 45.9204 -59.5008 -50.1435 50.6304 4.0781 -2.6918 56.6682 -1.5110 1.4553 -2.0517 -46.7754 -0.0900 99.7329 -8.2407 57.9643 -13.7018 0.0079 -20.1893 0.3397 10.1441 -21.7103 8.0382 2.9623 4.1964 80.8985 168.0929 72.2021 -180.2258 -13.3132 4.1330 0.1122 0.5618 -23.0712 -10.1732 
0.0000 93.1000 0.0000 42.8099 -40.9516 -26.8080 -70.5840 -0.3931 88.0002 116.7026 61.4394 -28.0254 -2.6615 14.4692 0.9646 -153.0933 12.7348 170.8762 -148.0353 51.8715 -167.3249 0.8048 -12.0193 -26.8483 -83.9144 46.9083 -70.1576 24.8637 -12.9199 -112.8973 -0.2280 -1.6190 0.2220 -3.9111 7.6967 44.2652 -58.0775 -53.8879 47.5963 1.9280 -2.1302 59.5082 -1.2705 0.9759 -1.2102 -61.2568 0.1407 95.6289 -4.3979 46.1358 -13.6498 -5.0248 -3.4233 2.1919 9.7029 -21.6404 -6.5707 4.2795 4.3454 78.6876 47.2113 84.2688 -51.4535 -7.3749 4.4322 -0.9588 0.6433 -24.1666 -15.8571 
0.0000 93.1000 0.0000 42.8574 -41.0406 -28.3254 -70.5710 0.3910 87.9029 110.7437 61.6173 -20.7581 -2.2925 13.1946 2.2857 -150.9903 12.2548 171.4802 -146.8938 51.3704 -170.2858 1.0228 -12.8696 -27.8555 -83.5114 47.8623 -65.9436 23.0355 -11.8702 -112.6310 0.2273 -1.0973 -0.0105 -2.7767 7.9941 41.1953 -54.7510 -57.1003 46.8004 -1.9288 -0.1283 61.7730 0.1237 0.4809 -0.2938 -70.1218 -0.0619 89.5461 -4.0793 37.2804 -15.4026 -10.9602 11.3518 3.3790 3.7909 -8.4610 -4.3854 1.3165 4.0002 77.9430 4.1214 62.2708 0.0108 -4.4561 5.6739 -0.1950 -0.1855 -27.4629 -23.8498 
0.0000 93.1000 0.0000 40.8912 -39.9432 -30.7437 -70.5085 0.1685 87.9482 100.7950 62.7706 -13.7134 -0.9202 12.9242 3.9632 -149.8952 12.8129 172.8483 -146.1784 51.8093 -169.8702 0.5106 -12.9125 -27.9089 -82.7739 48.6011 -64.7500 20.9978 -8.3990 -108.7678 0.3855 -0.1517 0.0658 -2.2396 7.4819 41.8907 -56.4128 -56.1388 45.7840 -4.0734 0.7589 64.4192 0.3965 -0.6518 0.2953 -68.6664 -5.5454 86.9344 -3.7726 45.3553 -9.8807 -7.1235 12.1084 2.0752 -1.6392 -1.1093 5.0769 -0.6375 3.9611 78.7558 3.2293 42.6705 10.0235 -0.3935 8.2451 -0.3690 0.3212 -30.9549 -31.4447 
